<svg xmlns="http://www.w3.org/2000/svg" version="1.1" xmlns:xlink="http://www.w3.org/1999/xlink" xmlns:svgjs="http://svgjs.com/svgjs" width="512" height="512"><svg xmlns="http://www.w3.org/2000/svg" version="1.1" xmlns:xlink="http://www.w3.org/1999/xlink" xmlns:svgjs="http://svgjs.com/svgjs" width="512" height="512" x="0" y="0" viewBox="0 0 60 60" style="enable-background:new 0 0 512 512" xml:space="preserve" class=""><g><g xmlns="http://www.w3.org/2000/svg" id="SvgjsG1018" fill="none" fill-rule="evenodd"><g id="SvgjsG1017"><path id="SvgjsPath1016" d="m46 9h7c2.209139 0 4 1.790861 4 4v36h-54v-36c0-2.209139 1.790861-4 4-4z" fill="#00bcd4" data-original="#00bcd4" style="" class=""></path><path id="SvgjsPath1015" d="m53 9h-3c2.209139 0 4 1.790861 4 4v36h3v-36c0-2.209139-1.790861-4-4-4z" fill="#00838f" data-original="#00838f" style=""></path><path id="SvgjsPath1014" d="m50 21c0 20-20 28-20 28s-20-8-20-28c0-11.045695 8.954305-20 20-20s20 8.954305 20 20z" fill="#f44335" data-original="#f44335" style="" class=""></path><path id="SvgjsPath1013" d="m30 1c-.506 0-1 .039-1.5.076 10.4297389.77811116 18.4960188 9.4652766 18.5 19.924 0 16.655-13.861 24.982-18.5 27.3.932.466 1.5.7 1.5.7s20-8 20-28c0-11.045695-8.954305-20-20-20z" fill="#c81e1e" data-original="#c81e1e" style=""></path><path id="SvgjsPath1012" d="m53 59h-46c-3.3137085 0-6-2.6862915-6-6v-3c0-.5522847.44771525-1 1-1h56c.5522847 0 1 .4477153 1 1v3c0 3.3137085-2.6862915 6-6 6z" fill="#9e9e9e" data-original="#9e9e9e" style=""></path><path id="SvgjsPath1011" d="m58 49h-3c.5522847 0 1 .4477153 1 1v3c0 3.3137085-2.6862915 6-6 6h3c3.3137085 0 6-2.6862915 6-6v-3c0-.5522847-.4477153-1-1-1z" fill="#707070" data-original="#707070" style=""></path><path id="SvgjsPath1010" d="m20 49h20v2c0 1.6568542-1.3431458 3-3 3h-14c-1.6568542 0-3-1.3431458-3-3z" fill="#707070" data-original="#707070" style=""></path><circle id="SvgjsCircle1009" cx="30" cy="21" fill="#ffdc00" r="16" data-original="#ffdc00" style="" class=""></circle><path id="SvgjsPath1008" d="m30 5c-.506 0-1.006.03-1.5.076 8.2180365.77140554 14.4992559 7.669838 14.4992559 15.924s-6.2812194 15.1525945-14.4992559 15.924c.494.046.994.076 1.5.076 8.836556 0 16-7.163444 16-16s-7.163444-16-16-16z" fill="#fec108" data-original="#fec108" style=""></path><path id="SvgjsPath1007" d="m34.49 36.361-1.257-11.354c-.036817-.3915826.1704547-.7656245.522-.942 2.5638881-1.3617092 4.1881705-4.0062196 4.2434213-6.9087567.0552508-2.902537-1.467213-5.6069469-3.9774213-7.0652433-.2125769-.11965795-.4727492-.11723718-.6830629.0063555-.2103136.1235928-.3390307.3497064-.3379371.5936445v3.978c-.0000317.330326-.1651424.6387828-.44.822l-2.01 1.34c-.3305929.2300179-.7694071.2300179-1.1 0l-2-1.33c-.2809439-.1867461-.4498447-.5016522-.45-.839v-3.972c.0004928-.243025-.1278171-.4681172-.3371833-.5915157-.2093661-.12339856-.4684405-.12662712-.6808167-.0084843-2.5067382 1.452812-4.0299931 4.1493475-3.980369 7.0462314.0496241 2.896884 1.6643423 5.5396655 4.219369 6.9057686.3649053.1853675.5800159.5743889.543.982l-1.254 11.337" fill="#9e9e9e" data-original="#9e9e9e" style=""></path><path id="SvgjsPath1006" d="m33.755 24.065c2.5638881-1.3617092 4.1881705-4.0062196 4.2434213-6.9087567.0552508-2.902537-1.467213-5.6069469-3.9774213-7.0652433-.2125769-.11965795-.4727492-.11723718-.6830629.0063555-.2103136.1235928-.3390307.3497064-.3379371.5936445v1.052c1.6192587 1.83035 2.3089057 4.3026047 1.8709034 6.7068372-.4380023 2.4042326-1.9551945 4.474446-4.1159034 5.6161628-.3517499.1761622-.5591062.550357-.522.942l1.257 11.353h3l-1.257-11.354c-.0371062-.391643.1702501-.7658378.522-.942z" fill="#707070" data-original="#707070" style=""></path><g fill="#000"><path id="SvgjsPath1005" d="m30 38c9.3888407 0 17-7.6111593 17-17s-7.6111593-17-17-17-17 7.6111593-17 17c.010471 9.3845001 7.6154999 16.989529 17 17zm-3.4-2.4 1.158-10.464c.0842213-.8129737-.3347046-1.595391-1.058-1.976-1.9865815-1.0543263-3.3399553-3.0050179-3.632-5.235-.3392142-2.5933517.7905653-5.1604019 2.932-6.662v3.4c-.0008992.6736498.3373906 1.3024929.9 1.673l1.982 1.317c.6677912.4649915 1.5532344.4697648 2.226.012l2.01-1.34c.5532201-.3695217.8844102-.9917234.882-1.657v-3.4c2.0017171 1.3925733 3.1336244 3.7271783 2.9872126 6.161248-.1464117 2.4340697-1.5500029 4.6161619-3.7042126 5.758752-.7121119.3692346-1.1264173 1.135997-1.045 1.934l1.162 10.478c-2.2347815.5376729-4.5652185.5376729-6.8 0zm3.4-29.6c7.2360963-.00674659 13.4440806 5.156707 14.755677 12.2729455s-2.6476483 14.1536175-9.410677 16.7270545l-1.121-10.053c2.8843442-1.5314399 4.7117989-4.5061498 4.7741139-7.7712479.062315-3.2650982-1.6503045-6.3073711-4.4741139-7.9477521-.5162077-.30410716-1.1567923-.30410716-1.673 0-.5241069.30068481-.8483753.8577712-.851 1.462l.005 3.968-2.005 1.342-2-1.34v-3.97c-.0024313-.6053258-.32656-1.16369563-.851-1.466-.5156851-.30208009-1.1543149-.30208009-1.67 0-3.1332079 1.8263996-4.8669096 5.3525125-4.4 8.949.3725586 2.8769293 2.1238667 5.3917524 4.693 6.739l-1.118 10.088c-6.7632063-2.5735031-10.722457-9.611166-9.4105889-16.7275471 1.311868-7.1163811 7.5203036-12.27968363 14.7565889-12.2724529z" fill-rule="nonzero" fill="#000000" data-original="#000000" style="" class=""></path><path id="SvgjsPath1004" d="m30 28c-.5522847 0-1 .4477153-1 1v4c0 .5522847.4477153 1 1 1s1-.4477153 1-1v-4c0-.5522847-.4477153-1-1-1z" fill="#000000" data-original="#000000" style="" class=""></path><path id="SvgjsPath1003" d="m58 48v-35c-.0033061-2.7600532-2.2399468-4.99669388-5-5h-6.539c-3.9689911-5.05098145-10.0371924-8.00017476-16.461-8.00017476s-12.4920089 2.94919331-16.461 8.00017476h-6.539c-2.76005315.00330612-4.99669388 2.2399468-5 5v35c-1.1045695 0-2 .8954305-2 2v3c.00495836 3.8639376 3.13606244 6.9950416 7 7h46c3.8639376-.0049584 6.9950416-3.1360624 7-7v-3c0-1.1045695-.8954305-2-2-2zm-5-38c1.6568542 0 3 1.3431458 3 3v35h-21.9c5.945-3.515 16.9-12.024 16.9-27-.0017734-3.8883807-1.0915226-7.6986926-3.146-11zm-32 40h18v1c0 1.1045695-.8954305 2-2 2h-14c-1.1045695 0-2-.8954305-2-2zm9-48c10.4886126.0115735 18.9884265 8.5113874 19 19 0 17.586-16.31 25.693-19 26.909-2.69-1.216-19-9.323-19-26.909.0115735-10.4886126 8.5113874-18.9884265 19-19zm-26 11c0-1.6568542 1.34314575-3 3-3h5.146c-2.0544774 3.3013074-3.14422658 7.1116193-3.146 11 0 14.976 10.955 23.485 16.9 27h-21.9zm54 40c-.0033061 2.7600532-2.2399468 4.9966939-5 5h-46c-2.76005315-.0033061-4.99669388-2.2399468-5-5v-3h17v1c0 2.209139 1.790861 4 4 4h14c2.209139 0 4-1.790861 4-4v-1h17z" fill-rule="nonzero" fill="#000000" data-original="#000000" style="" class=""></path><path id="SvgjsPath1002" d="m16 52h-3c-.5522847 0-1 .4477153-1 1s.4477153 1 1 1h3c.5522847 0 1-.4477153 1-1s-.4477153-1-1-1z" fill="#000000" data-original="#000000" style="" class=""></path><circle id="SvgjsCircle1001" cx="5" cy="53" r="1" fill="#000000" data-original="#000000" style="" class=""></circle><circle id="SvgjsCircle1000" cx="9" cy="53" r="1" fill="#000000" data-original="#000000" style="" class=""></circle></g></g></g></g></svg><style>@media (prefers-color-scheme: light) { :root { filter: none; } }
</style></svg>