<?xml version="1.0" standalone="no"?>
<!DOCTYPE svg PUBLIC "-//W3C//DTD SVG 20010904//EN"
 "http://www.w3.org/TR/2001/REC-SVG-20010904/DTD/svg10.dtd">
<svg version="1.0" xmlns="http://www.w3.org/2000/svg"
 width="700.000000pt" height="700.000000pt" viewBox="0 0 700.000000 700.000000"
 preserveAspectRatio="xMidYMid meet">
<metadata>
Created by potrace 1.14, written by Peter Selinger 2001-2017
</metadata>
<g transform="translate(0.000000,700.000000) scale(0.100000,-0.100000)"
fill="#000000" stroke="none">
<path d="M3310 6994 c-598 -55 -1128 -301 -1540 -715 -58 -58 -123 -128 -145
-156 l-40 -51 -435 -4 c-384 -4 -441 -6 -490 -22 -199 -65 -339 -205 -407
-406 -17 -53 -18 -143 -21 -2147 l-2 -2091 -39 -7 c-59 -10 -125 -57 -158
-112 l-28 -48 0 -275 c0 -257 2 -280 23 -354 82 -284 294 -496 579 -578 l78
-23 2815 0 2815 0 80 23 c282 81 495 294 577 579 21 73 23 97 23 353 l0 275
-28 48 c-33 55 -99 102 -158 112 l-39 7 -2 2091 c-3 2003 -4 2094 -21 2147
-68 201 -208 341 -407 406 -49 16 -105 18 -489 22 l-433 3 -27 32 c-193 232
-400 408 -651 558 -266 157 -579 268 -890 314 -101 15 -447 27 -540 19z m471
-718 c476 -79 907 -355 1171 -751 70 -106 166 -298 203 -410 253 -752 -28
-1579 -684 -2016 -92 -61 -271 -156 -327 -173 -20 -6 -22 6 -85 579 l-65 585
64 37 c135 79 301 263 381 420 236 471 80 1055 -360 1343 -79 53 -86 55 -149
55 -57 0 -73 -4 -107 -28 -22 -15 -50 -46 -64 -70 -23 -41 -24 -48 -27 -302
l-3 -260 -111 -73 c-128 -86 -111 -86 -253 11 l-90 62 -5 261 -5 261 -30 48
c-42 67 -100 98 -177 93 -51 -4 -68 -11 -145 -64 -212 -143 -360 -353 -430
-609 -25 -90 -27 -116 -27 -260 0 -140 4 -172 27 -257 30 -112 86 -238 147
-329 59 -88 210 -235 297 -289 50 -31 73 -51 73 -65 0 -22 -122 -1148 -125
-1153 -4 -5 -152 60 -214 95 -252 140 -457 328 -617 568 -128 193 -210 392
-261 634 -23 109 -26 151 -27 316 -1 201 8 281 51 450 175 700 779 1222 1508
1305 105 12 357 4 466 -14z m-2401 -498 c-145 -248 -247 -530 -302 -835 -21
-115 -23 -157 -22 -423 0 -250 3 -317 22 -437 54 -360 142 -649 288 -953 192
-398 400 -687 734 -1020 263 -264 536 -477 880 -688 l35 -22 -1273 0 -1272 0
2 2083 3 2082 28 60 c45 97 115 157 222 191 29 9 131 13 363 13 l322 1 -30
-52z m4805 10 c20 -24 48 -64 61 -90 57 -112 54 17 54 -2230 l0 -2068 -1156 0
-1157 0 121 78 c576 368 1022 805 1342 1312 85 135 244 455 294 590 83 226
141 456 178 703 30 197 32 653 5 827 -23 147 -76 351 -122 476 -40 106 -134
306 -184 392 l-31 52 279 0 279 0 37 -42z m-3128 -603 c29 -54 57 -78 202
-175 146 -97 174 -110 241 -110 68 0 94 12 252 118 198 133 218 163 218 338
l1 99 21 -40 c65 -124 93 -266 85 -446 -6 -157 -21 -218 -86 -354 -81 -168
-186 -287 -348 -392 -125 -80 -121 -68 -96 -302 12 -107 21 -197 19 -198 -1
-2 -17 2 -35 7 -47 13 -100 -7 -129 -50 -23 -34 -23 -36 -20 -307 l3 -273 33
-32 c28 -28 39 -33 82 -33 42 0 54 5 81 31 26 26 33 43 38 90 6 54 8 43 24
-111 10 -93 20 -184 23 -201 l6 -32 -94 -7 c-129 -9 -439 23 -465 48 -3 3 25
277 61 609 37 332 66 621 66 643 0 42 -26 105 -57 141 -10 12 -56 46 -103 76
-107 69 -166 122 -226 201 -254 338 -210 810 103 1097 l68 62 5 -229 c5 -209
7 -231 27 -268z m-847 -4082 c0 -98 19 -185 55 -258 68 -137 185 -227 333
-255 39 -8 327 -10 937 -8 872 3 881 3 937 24 201 76 318 259 318 497 l0 57
875 0 875 0 0 -152 c-1 -375 -43 -510 -216 -686 l-81 -82 -2753 0 c-3042 0
-2799 -5 -2940 63 -87 42 -203 158 -247 247 -55 110 -63 160 -63 397 l0 213
985 0 985 0 0 -57z"/>
<path d="M553 933 c-33 -6 -79 -57 -87 -93 -8 -40 13 -90 50 -119 40 -31 114
-25 151 12 37 37 43 111 12 151 -20 26 -77 58 -96 55 -4 -1 -18 -4 -30 -6z"/>
<path d="M1010 927 c-39 -14 -80 -67 -80 -104 0 -14 7 -40 16 -59 41 -85 167
-85 208 0 21 45 20 74 -4 113 -30 50 -82 69 -140 50z"/>
<path d="M1474 926 c-47 -21 -74 -61 -74 -113 0 -38 5 -50 34 -79 l34 -34 220
0 c210 0 220 1 247 22 36 28 56 78 49 118 -9 40 -54 86 -95 94 -62 12 -382 6
-415 -8z"/>
</g>
</svg>
