<?xml version="1.0" standalone="no"?>
<!DOCTYPE svg PUBLIC "-//W3C//DTD SVG 1.1//EN" "http://www.w3.org/Graphics/SVG/1.1/DTD/svg11.dtd" >
<svg xmlns="http://www.w3.org/2000/svg">
<metadata>Generated by IcoMoon</metadata>
<defs>
<font id="icons" horiz-adv-x="1024">
<font-face units-per-em="1024" ascent="960" descent="-64" />
<missing-glyph horiz-adv-x="1024" />
<glyph unicode="&#x20;" horiz-adv-x="512" d="" />
<glyph unicode="&#xe900;" glyph-name="bars" d="M42.666 490.672h938.667c23.552 0 42.667-19.115 42.667-42.667s-19.115-42.667-42.667-42.667h-938.667c-23.552 0-42.667 19.115-42.667 42.667s19.115 42.667 42.667 42.667zM42.666 163.557h938.667c23.552 0 42.667-19.115 42.667-42.667s-19.115-42.667-42.667-42.667h-938.667c-23.552 0-42.667 19.115-42.667 42.667s19.115 42.667 42.667 42.667zM42.666 817.776h938.667c23.552 0 42.667-19.115 42.667-42.667s-19.115-42.667-42.667-42.667h-938.667c-23.552 0-42.667 19.115-42.667 42.667s19.115 42.667 42.667 42.667z" />
<glyph unicode="&#xe901;" glyph-name="tools" d="M566.548 469.138c11.797 6.033 24.939 9.222 38.573 9.222 22.595 0 43.838-8.772 59.851-24.701l34.472 34.469c85.307-29.903 183.973-10.759 252.17 57.434 57.382 57.382 80.012 136.331 67.932 210.75-1.331 8.195-7.133 14.955-15.032 17.505-7.898 2.554-16.569 0.479-22.438-5.394l-51.184-51.184c-41.683-41.683-109.268-41.683-150.951 0-41.686 41.683-41.686 109.268 0 150.951l51.184 51.184c5.872 5.872 7.965 14.543 5.408 22.445-2.554 7.905-9.324 13.694-17.523 15.025-74.415 12.080-153.368-10.55-210.746-67.932-69.21-69.21-87.837-169.79-56.005-255.954l-74.765-74.765 89.052-89.056zM430.307 333.66l-88.678 88.678-310.087-310.083c-40.32-40.32-40.32-105.691 0-146.011s105.691-40.32 146.011 0l267.314 267.311c-26.962 27.105-31.821 68.026-14.56 100.105zM628.087 416.448c-6.34 6.34-14.655 9.512-22.965 9.512s-16.625-3.172-22.965-9.512l-18.511-18.511-329.744 329.744 15.413 15.413c14.043 14.040 12.3 37.33-3.706 49.116l-134.536 99.082c-12.929 9.519-30.871 8.167-42.224-3.186l-57.123-57.127c-11.353-11.353-12.705-29.299-3.186-42.224l99.078-134.536c11.787-16.003 35.063-17.764 49.116-3.706l15.413 15.416 329.744-329.744-19.814-19.814c-12.684-12.684-12.684-33.246 0-45.93l304.197-304.197c40.32-40.32 105.691-40.32 146.011 0s40.32 105.691 0 146.011l-304.197 304.193z" />
<glyph unicode="&#xe902;" glyph-name="calendar" d="M904 880h-48v80h-80v-80h-528v80h-80v-80h-48c-66.168 0-120-53.832-120-120v-704c0-66.168 53.832-120 120-120h784c66.168 0 120 53.832 120 120v704c0 66.168-53.832 120-120 120zM944 56c0-22.056-17.944-40-40-40h-784c-22.056 0-40 17.944-40 40v528h864v-528zM944 664h-864v96c0 22.056 17.944 40 40 40h48v-80h80v80h528v-80h80v80h48c22.056 0 40-17.944 40-40v-96zM152 500h80v-80h-80v80zM312 500h80v-80h-80v80zM472 500h80v-80h-80v80zM632 500h80v-80h-80v80zM792 500h80v-80h-80v80zM152 340h80v-80h-80v80zM312 340h80v-80h-80v80zM472 340h80v-80h-80v80zM632 340h80v-80h-80v80zM152 180h80v-80h-80v80zM312 180h80v-80h-80v80zM472 180h80v-80h-80v80zM632 180h80v-80h-80v80zM792 340h80v-80h-80v80z" />
<glyph unicode="&#xe903;" glyph-name="clock" d="M615.438 27.32c-8.444-2.104-17.053-3.973-25.598-5.547-22.338-4.154-37.106-25.637-32.974-47.995 2.041-10.999 8.288-20.161 16.769-26.141 8.741-6.152 19.866-8.93 31.202-6.822 10.176 1.889 20.432 4.11 30.495 6.621 22.058 5.49 35.497 27.836 29.994 49.884-5.49 22.067-27.817 35.494-49.888 30zM919.855 579.089c2.884-8.69 8.389-15.785 15.342-20.687 10.31-7.262 23.802-9.705 36.676-5.448 21.585 7.167 33.28 30.443 26.139 52.017-3.253 9.835-6.863 19.701-10.709 29.307-8.444 21.11-32.389 31.387-53.509 22.943-21.099-8.439-31.38-32.391-22.93-53.507 3.231-8.074 6.258-16.362 8.99-24.625zM749.203 86.094c-7.262-4.794-14.757-9.434-22.307-13.782-19.699-11.363-26.445-36.542-15.087-56.232 3.084-5.356 7.191-9.734 11.922-13.080 12.699-8.935 29.945-10.273 44.304-2.001 8.977 5.177 17.902 10.685 26.551 16.403 18.961 12.527 24.18 38.068 11.647 57.038-12.531 18.977-38.061 24.189-57.029 11.653zM1023.609 464.116c-0.896 22.721-20.033 40.405-42.761 39.518-22.699-0.896-40.396-20.040-39.505-42.752 0.341-8.684 0.429-17.497 0.229-26.172-0.319-14.248 6.65-26.949 17.48-34.583 6.452-4.543 14.281-7.293 22.771-7.486 22.721-0.504 41.55 17.517 42.054 40.249 0.227 10.365 0.141 20.867-0.269 31.226zM913.137 194.387c-18.219 13.669-43.995 9.958-57.641-8.228-5.226-6.965-10.729-13.843-16.364-20.467-14.726-17.301-12.646-43.289 4.656-58.026 0.986-0.836 1.983-1.605 3.018-2.327 17.2-12.126 41.105-9.34 55.012 6.98 6.729 7.902 13.289 16.119 19.533 24.438 13.647 18.186 9.954 43.98-8.215 57.63zM973.648 343.195c-21.693 6.802-44.794-5.274-51.592-26.967-2.602-8.288-5.485-16.615-8.598-24.77-6.835-17.953-0.286-37.707 14.726-48.292 2.754-1.935 5.787-3.575 9.082-4.821 21.239-8.105 45.023 2.551 53.119 23.799 3.696 9.696 7.125 19.604 10.227 29.457 6.791 21.697-5.276 44.792-26.965 51.594zM435.837 21.403c-36.804 6.608-72.109 17.861-105.587 33.555-0.396 0.207-0.751 0.442-1.167 0.632-7.889 3.713-15.765 7.691-23.399 11.847-0.026 0.031-0.075 0.051-0.117 0.068-14.006 7.713-27.676 16.247-40.956 25.596-193.644 136.409-240.204 404.929-103.787 598.571 29.663 42.091 65.561 77.207 105.581 105.039 0.493 0.343 0.986 0.685 1.475 1.030 141.025 97.17 332.514 103.719 482.26 3.868l-32.162-46.47c-8.941-12.934-3.44-22.36 12.212-20.951l139.704 12.507c15.673 1.409 25.045 14.966 20.83 30.101l-37.515 135.167c-4.2 15.153-14.953 16.967-23.903 4.035l-32.237-46.58c-109.893 73.769-241.699 101.898-372.523 79.213-13.176-2.28-26.168-5.072-38.981-8.321-0.099-0.018-0.178-0.029-0.258-0.046-0.495-0.121-0.997-0.282-1.479-0.416-112.812-28.97-211.239-94.766-281.472-188.643-0.592-0.702-1.202-1.389-1.761-2.153-2.335-3.146-4.653-6.364-6.923-9.582-3.711-5.274-7.37-10.68-10.87-16.086-0.438-0.652-0.773-1.314-1.156-1.972-57.958-89.811-85.913-193.642-81.119-299.348 0.011-0.348-0.009-0.698 0-1.054 0.464-10.326 1.283-20.795 2.395-31.101 0.059-0.665 0.207-1.294 0.319-1.959 1.149-10.363 2.591-20.751 4.398-31.136 18.367-105.962 68.352-201.311 143.252-275.503 0.174-0.174 0.354-0.363 0.53-0.544 0.062-0.068 0.13-0.103 0.189-0.167 20.123-19.848 42.012-38.206 65.58-54.806 61.678-43.461 130.357-72.188 204.115-85.424 22.38-4.022 43.758 10.876 47.773 33.245 4.013 22.384-10.872 43.78-33.245 47.788zM486.74 776.865c-18.409 0-33.32-14.924-33.32-33.306v-331.825l303.48-156.882c4.884-2.529 10.115-3.72 15.261-3.72 12.054 0 23.696 6.564 29.615 18.017 8.442 16.346 2.054 36.428-14.292 44.869l-267.462 138.275v291.265c-0.002 18.382-14.896 33.306-33.282 33.306z" />
<glyph unicode="&#xe904;" glyph-name="thumbsup" d="M1024 352c0 25.642-10.198 49.536-27.776 67.158 19.926 21.802 30.080 51.030 27.306 81.45-4.992 54.23-53.846 96.726-111.274 96.726h-263.552c13.056 39.638 33.962 112.298 33.962 170.666 0 92.544-78.634 170.666-128 170.666-44.288 0-75.99-24.96-77.312-25.984-5.078-4.054-8.022-10.198-8.022-16.682v-144.682l-122.922-266.198-5.078-2.602v8.15c0 11.776-9.558 21.334-21.334 21.334h-213.332c-58.836-0.002-106.666-47.832-106.666-106.668v-341.334c0-58.838 47.83-106.666 106.666-106.666h128c46.122 0 85.546 29.44 100.394 70.528 35.5-18.262 83.286-27.862 112.94-27.862h391.638c46.464 0 87.126 31.318 96.682 74.496 4.906 22.272 2.048 44.672-7.68 64.128 31.488 15.83 52.694 48.384 52.694 85.376 0 15.104-3.456 29.568-9.984 42.624 31.488 15.872 52.65 48.384 52.65 85.376zM934.016 299.35c-8.234-0.982-15.19-6.57-17.834-14.464-2.602-7.894-0.426-16.554 5.632-22.272 10.838-10.198 16.854-23.936 16.854-38.614 0-26.922-20.352-49.536-47.274-52.65-8.234-0.982-15.19-6.57-17.834-14.464-2.602-7.894-0.426-16.554 5.632-22.272 14.038-13.226 19.67-31.786 15.446-50.902-5.248-23.808-28.374-41.046-54.998-41.046h-391.64c-34.646 0-92.758 16.256-112.896 36.438-6.102 6.058-15.318 7.85-23.254 4.608-7.978-3.286-13.184-11.094-13.184-19.712 0-35.286-28.714-64-64-64h-128c-35.286 0-64 28.714-64 64v341.334c0 35.286 28.714 64 64 64h192v-21.334c0-7.382 3.84-14.25 10.154-18.176 6.23-3.754 14.080-4.138 20.736-0.896l42.666 21.334c4.31 2.134 7.766 5.718 9.814 10.112l128 277.334c1.28 2.816 1.962 5.888 1.962 8.96v137.77c8.876 4.906 24.28 11.562 42.668 11.562 23.382 0 85.334-58.112 85.334-128 0-75.094-40.874-183.338-41.258-184.406-2.474-6.528-1.622-13.91 2.346-19.712 4.010-5.76 10.582-9.216 17.578-9.216h293.59c35.584 0 65.792-25.472 68.778-57.984 2.262-24.32-9.43-47.446-30.378-60.374-6.528-4.010-10.41-11.264-10.112-18.986s4.736-14.634 11.562-18.176c18.048-9.174 29.226-27.264 29.226-47.146 0.002-26.922-20.35-49.536-47.316-52.65zM320 469.334c-11.776 0-21.334-9.558-21.334-21.334v-384c0-11.776 9.558-21.334 21.334-21.334s21.334 9.558 21.334 21.334v384c0 11.776-9.558 21.334-21.334 21.334z" />
<glyph unicode="&#xe905;" glyph-name="fb" d="M772.614 594.247h-187.513v91.405c0 0-10.502 86.923 50.273 86.923 68.685 0 123.528 0 123.528 0v187.426h-210.318c0 0-175.999 0.748-175.999-175.999 0-37.968-0.175-107.093-0.44-189.754h-120.761v-150.906h120.452c-0.703-239.937-1.538-507.343-1.538-507.343h214.802v507.343h141.765l45.75 150.906z" />
<glyph unicode="&#xe906;" glyph-name="laptop2" d="M1019.554 105.953c-0.51 1.32 7.283-15.582-109.565 236.67v475.333c0 33.080-26.913 59.993-59.993 59.993h-675.919c-33.080 0-59.993-26.913-59.993-59.993v-475.327l-108.913-234.932c-8.063-17.414-7.193-42.065 6.137-61.555 12.033-17.588 31.938-28.091 53.25-28.091h894.867c45.273 0 76.595 45.571 60.129 87.902zM174.076 817.956h675.919v-451.946h-675.919zM408.852 78.044l21.247 67.992h163.868l21.247-67.992zM959.425 78.044h-281.352l-33.418 106.935c-3.914 12.523-15.512 21.049-28.631 21.049h-207.975c-13.12 0-24.717-8.527-28.631-21.049l-33.418-106.935h-281.442c-3.174 0-5.117 3.010-4.385 5.655l103.064 222.318h697.591l102.982-222.316c0.736-2.642-1.208-5.657-4.383-5.657z" />
<glyph unicode="&#xe907;" glyph-name="location" d="M512.001 864.001c-176.647-0.209-319.791-143.353-320-319.98v-0.020c0-231.562 286.358-492.749 298.56-503.75 5.651-5.12 13.185-8.253 21.45-8.253 8.217 0 15.71 3.097 21.376 8.187l-0.030-0.026c12.176 10.938 298.643 270.218 298.643 503.843-0.215 176.645-143.355 319.785-319.979 320h-0.021zM512.065 108.161c-65.062 63.965-256.064 266.214-256.064 435.84 0 141.385 114.615 256 256 256s256-114.615 256-256v0c0-170.906-190.845-372.189-255.936-435.84zM512.001 672.001c-70.692 0-128-57.308-128-128s57.308-128 128-128c70.692 0 128 57.308 128 128v0c-0.078 70.661-57.339 127.922-127.992 128h-0.008zM512.001 480.001c-35.346 0-64 28.654-64 64s28.654 64 64 64c35.346 0 64-28.654 64-64v0c-0.042-35.329-28.671-63.958-63.996-64h-0.004z" />
<glyph unicode="&#xe908;" glyph-name="mail" d="M843.638 660.938l-331.603-292.208-331.675 292.212c-13.207 11.635-33.337 10.356-44.968-2.842-11.626-13.202-10.361-33.333 2.846-44.968l352.74-310.771c6.019-5.301 13.542-7.952 21.061-7.952s15.046 2.651 21.065 7.956l352.668 310.771c13.198 11.631 14.468 31.766 2.838 44.968-11.639 13.19-31.766 14.464-44.972 2.833zM928.422 796.331h-832.845c-52.699 0-95.577-42.874-95.577-95.577v-505.507c0-52.704 42.878-95.577 95.577-95.577h832.845c52.699 0 95.577 42.874 95.577 95.577v505.507c0 52.699-42.878 95.577-95.577 95.577zM960.281 195.247c0-17.565-14.29-31.859-31.859-31.859h-832.845c-17.569 0-31.859 14.294-31.859 31.859v505.507c0 17.565 14.29 31.859 31.859 31.859h832.845c17.569 0 31.859-14.294 31.859-31.859v-505.507z" />
<glyph unicode="&#xe909;" glyph-name="phone" d="M875.58 825.858c-86.509 86.509-201.533 134.147-323.868 134.142-20.047 0-36.291-16.249-36.291-36.291s16.249-36.291 36.291-36.291c102.951 0.005 199.742-40.085 272.543-112.885 72.805-72.8 112.895-169.596 112.89-272.552 0-20.042 16.244-36.291 36.291-36.291 20.042 0 36.291 16.249 36.291 36.286 0.005 122.35-47.634 237.374-134.147 323.883zM726.292 501.975c0-20.042 16.249-36.291 36.296-36.286 20.042 0 36.286 16.249 36.286 36.291-0.010 136.262-110.887 247.134-247.158 247.153-0.005 0 0 0-0.005 0-20.042 0-36.286-16.244-36.291-36.286 0-20.042 16.244-36.291 36.286-36.296 96.259-0.015 174.576-78.326 174.585-174.576zM645.987 316.938c-55.318 2.865-83.499-38.275-97.014-58.037-11.318-16.544-7.079-39.127 9.465-50.445s39.127-7.079 50.445 9.465c15.968 23.347 23.202 27.020 33.015 26.556 31.409-3.692 155.114-94.343 167.501-122.689 3.107-8.347 2.99-16.529-0.344-26.483-12.987-38.546-34.486-65.634-62.184-78.331-26.314-12.063-58.574-10.97-93.273 3.15-129.57 52.811-242.769 126.511-336.449 219.059-0.039 0.039-0.077 0.073-0.111 0.111-92.354 93.588-165.919 206.643-218.643 336.014-14.125 34.728-15.218 66.994-3.155 93.302 12.697 27.698 39.785 49.196 78.297 62.169 9.987 3.348 18.155 3.455 26.425 0.377 28.448-12.431 119.094-136.131 122.752-167.187 0.523-10.181-3.179-17.41-26.507-33.349-16.549-11.304-20.802-33.886-9.494-50.435 11.304-16.549 33.882-20.797 50.435-9.494 19.771 13.5 60.902 41.604 58.047 97.111-3.145 57.979-115.929 211.52-169.819 231.335-23.967 8.932-49.177 9.087-74.958 0.435-58.008-19.534-99.903-54.364-121.155-100.72-20.613-44.972-19.96-97.149 1.911-150.919 56.426-138.449 135.371-259.589 234.64-360.068 0.242-0.247 0.489-0.489 0.74-0.726 100.406-99.085 221.406-177.885 359.671-234.243 27.688-11.26 54.955-16.897 81.031-16.897 24.552 0 48.059 4.994 69.863 14.991 46.361 21.247 81.186 63.137 100.735 121.184 8.632 25.733 8.492 50.934-0.373 74.789-19.883 54.035-173.424 166.819-231.495 169.974z" />
<glyph unicode="&#xe90a;" glyph-name="clock2" d="M512.005 960c-282.314 0-511.995-229.676-511.995-511.985 0-282.329 229.681-512.015 511.995-512.015 282.309 0 511.985 229.691 511.985 512.015 0 282.309-229.676 511.985-511.985 511.985zM512.005 9.394c-241.845 0-438.601 196.766-438.601 438.62 0 241.84 196.756 438.591 438.601 438.591 241.84 0 438.591-196.751 438.591-438.591 0-241.854-196.751-438.62-438.591-438.62zM775.266 456.582h-240.607v263.007c0 20.267-16.426 36.697-36.697 36.697-20.267 0-36.697-16.431-36.697-36.697v-299.704c0-20.267 16.431-36.697 36.697-36.697h277.304c20.272 0 36.697 16.431 36.697 36.697s-16.431 36.697-36.697 36.697z" />
<glyph unicode="&#xe90b;" glyph-name="usbcable" d="M640 784h-16v144c0 8.837-7.163 16-16 16v0h-192c-8.837 0-16-7.163-16-16v0-144h-16c-8.837 0-16-7.163-16-16v0-208c0-0.002 0-0.004 0-0.006 0-4.417 1.788-8.417 4.68-11.314v0l27.32-27.3v-57.38c0-8.837 7.163-16 16-16v0h16v-32c0-8.837 7.163-16 16-16v0-432c0-8.837 7.163-16 16-16v0h96c8.837 0 16 7.163 16 16v0 432c8.837 0 16 7.163 16 16v0 32h16c8.837 0 16 7.163 16 16v0 57.38l27.32 27.3c2.892 2.897 4.68 6.897 4.68 11.314 0 0.002 0 0.004 0 0.006v0 208c0 8.837-7.163 16-16 16v0zM432 912h160v-128h-160zM544-16h-64v416h64zM560 432h-96v16h96zM624 566.62l-27.32-27.3c-2.892-2.897-4.68-6.897-4.68-11.314 0-0.002 0-0.004 0-0.006v0-48h-160v48c0 0.002 0 0.004 0 0.006 0 4.417-1.788 8.417-4.68 11.314v0l-27.32 27.3v185.38h224zM464 880c-8.837 0-16-7.163-16-16v0-32c0-8.837 7.163-16 16-16s16 7.163 16 16v0 32c0 8.837-7.163 16-16 16v0zM512 880c-8.837 0-16-7.163-16-16v0-32c0-8.837 7.163-16 16-16s16 7.163 16 16v0 32c0 8.837-7.163 16-16 16v0zM560 880c-8.837 0-16-7.163-16-16v0-32c0-8.837 7.163-16 16-16s16 7.163 16 16v0 32c0 8.837-7.163 16-16 16v0z" />
<glyph unicode="&#xe90c;" glyph-name="laptop1" d="M992 224h-80v520c-0.035 30.914-25.086 55.965-55.997 56h-688.003c-30.914-0.035-55.965-25.086-56-55.997v-520.003h-80c-8.837 0-16-7.163-16-16v0-56c0.035-30.914 25.086-55.965 55.997-56h880.003c30.914 0.035 55.965 25.086 56 55.997v56.003c0 8.837-7.163 16-16 16v0zM144 744c0.011 13.25 10.75 23.989 23.999 24h688.001c13.25-0.011 23.989-10.75 24-23.999v-520.001h-736zM569.8 192l-5.34-16h-104.92l-5.34 16zM976 152c-0.011-13.25-10.75-23.989-23.999-24h-880.001c-13.25 0.011-23.989 10.75-24 23.999v40.001h372.46l12.36-37.060c2.184-6.411 8.152-10.94 15.179-10.94 0 0 0.001 0 0.001 0h128c0 0 0.001 0 0.001 0 7.026 0 12.995 4.529 15.145 10.827l0.033 0.113 12.36 37.060h372.46zM864 256v480c0 8.837-7.163 16-16 16v0h-672c-8.837 0-16-7.163-16-16v0-480c0-8.837 7.163-16 16-16v0h672c8.837 0 16 7.163 16 16v0zM832 272h-640v448h640z" />
<glyph unicode="&#xe90d;" glyph-name="sd" d="M816 592c8.837 0 16 7.163 16 16v0 320c0 8.837-7.163 16-16 16v0h-608c-8.837 0-16-7.163-16-16v0-960c0-8.837 7.163-16 16-16v0h512c0.002 0 0.004 0 0.006 0 4.417 0 8.417 1.788 11.314 4.68v0l96 96c2.892 2.897 4.68 6.897 4.68 11.314 0 0.002 0 0.004 0 0.006v0 320c0 8.837-7.163 16-16 16v0h-32v192zM800 70.62l-86.62-86.62h-489.38v256h576zM768 368h32v-96h-576v640h576v-288h-32c-8.837 0-16-7.163-16-16v0-224c0-8.837 7.163-16 16-16v0zM544 208h-64c-8.837 0-16-7.163-16-16v0-160c0-8.837 7.163-16 16-16v0h64c8.837 0 16 7.163 16 16v0 160c0 8.837-7.163 16-16 16v0zM528 48h-32v128h32zM416 208h-64c-8.837 0-16-7.163-16-16v0-160c0-8.837 7.163-16 16-16v0h64c8.837 0 16 7.163 16 16v0 160c0 8.837-7.163 16-16 16v0zM400 48h-32v128h32zM672 208h-64c-8.837 0-16-7.163-16-16v0-160c0-8.837 7.163-16 16-16v0h64c8.837 0 16 7.163 16 16v0 160c0 8.837-7.163 16-16 16v0zM656 48h-32v128h32z" />
<glyph unicode="&#xe90e;" glyph-name="computer" d="M952 864h-880c-30.914-0.035-55.965-25.086-56-55.997v-592.003c0.035-30.914 25.086-55.965 55.997-56h324.483l-9.6-48h-66.88c-8.837 0-16-7.163-16-16v0-48c0-8.837 7.163-16 16-16v0h384c8.837 0 16 7.163 16 16v0 48c0 8.837-7.163 16-16 16v0h-66.88l-9.6 48h324.48c30.914 0.035 55.965 25.086 56 55.997v592.003c-0.035 30.914-25.086 55.965-55.997 56h-0.003zM688 80v-16h-352v16zM419.52 112l9.6 48h165.76l9.6-48zM976 216c-0.011-13.25-10.75-23.989-23.999-24h-880.001c-13.25 0.011-23.989 10.75-24 23.999v40.001h928zM976 288h-928v520c0.011 13.25 10.75 23.989 23.999 24h880.001c13.25-0.011 23.989-10.75 24-23.999v-0.001zM528 240h-32c-8.837 0-16-7.163-16-16s7.163-16 16-16v0h32c8.837 0 16 7.163 16 16s-7.163 16-16 16v0z" />
<glyph unicode="&#xe90f;" glyph-name="wifikeyboard" d="M528 656c0-8.837-7.163-16-16-16s-16 7.163-16 16c0 8.837 7.163 16 16 16s16-7.163 16-16zM544 675.778c0.002 0 0.003 0 0.005 0 8.837 0 16 7.163 16 16 0 4.73-2.052 8.98-5.314 11.909l-0.015 0.013c-11.271 10.116-26.249 16.302-42.672 16.302s-31.401-6.186-42.732-16.355l0.060 0.053c-3.277-2.942-5.329-7.193-5.329-11.922 0-8.837 7.164-16 16-16 4.107 0 7.853 1.548 10.686 4.091l-0.015-0.013c5.635 5.055 13.121 8.146 21.33 8.146s15.695-3.091 21.36-8.172l-0.030 0.026c2.811-2.53 6.55-4.078 10.65-4.078 0.006 0 0.011 0 0.017 0h-0.001zM458.67 715.632c14.087 12.64 32.806 20.369 53.33 20.369s39.243-7.729 53.405-20.434l-0.075 0.066c2.804-2.478 6.512-3.991 10.573-3.991 8.837 0 16 7.163 16 16 0 4.684-2.013 8.898-5.22 11.824l-0.013 0.011c-19.723 17.7-45.933 28.523-74.67 28.523s-54.947-10.823-74.774-28.615l0.104 0.092c-3.335-2.946-5.427-7.233-5.427-12.009 0-8.837 7.163-16 16-16 4.153 0 7.936 1.582 10.78 4.176l-0.013-0.011zM480 448h64c8.837 0 16 7.163 16 16v0 64c0 8.837-7.163 16-16 16v0h-64c-8.837 0-16-7.163-16-16v0-64c0-8.837 7.163-16 16-16v0zM496 512h32v-32h-32zM352 448h64c8.837 0 16 7.163 16 16v0 64c0 8.837-7.163 16-16 16v0h-64c-8.837 0-16-7.163-16-16v0-64c0-8.837 7.163-16 16-16v0zM368 512h32v-32h-32zM608 448h64c8.837 0 16 7.163 16 16v0 64c0 8.837-7.163 16-16 16v0h-64c-8.837 0-16-7.163-16-16v0-64c0-8.837 7.163-16 16-16v0zM624 512h32v-32h-32zM736 448h64c8.837 0 16 7.163 16 16v0 64c0 8.837-7.163 16-16 16v0h-64c-8.837 0-16-7.163-16-16v0-64c0-8.837 7.163-16 16-16v0zM752 512h32v-32h-32zM928 544h-64c-8.837 0-16-7.163-16-16v0-64c0-8.837 7.163-16 16-16v0h64c8.837 0 16 7.163 16 16v0 64c0 8.837-7.163 16-16 16v0zM912 480h-32v32h32zM224 448h64c8.837 0 16 7.163 16 16v0 64c0 8.837-7.163 16-16 16v0h-64c-8.837 0-16-7.163-16-16v0-64c0-8.837 7.163-16 16-16v0zM240 512h32v-32h-32zM96 448h64c8.837 0 16 7.163 16 16v0 64c0 8.837-7.163 16-16 16v0h-64c-8.837 0-16-7.163-16-16v0-64c0-8.837 7.163-16 16-16v0zM112 512h32v-32h-32zM928 288h-64c-8.837 0-16-7.163-16-16v0-64c0-8.837 7.163-16 16-16v0h64c8.837 0 16 7.163 16 16v0 64c0 8.837-7.163 16-16 16v0zM912 224h-32v32h32zM160 288h-64c-8.837 0-16-7.163-16-16v0-64c0-8.837 7.163-16 16-16v0h64c8.837 0 16 7.163 16 16v0 64c0 8.837-7.163 16-16 16v0zM144 224h-32v32h32zM672 288h-320c-8.837 0-16-7.163-16-16v0-64c0-8.837 7.163-16 16-16v0h320c8.837 0 16 7.163 16 16v0 64c0 8.837-7.163 16-16 16v0zM656 224h-288v32h288zM800 288h-64c-8.837 0-16-7.163-16-16v0-64c0-8.837 7.163-16 16-16v0h64c8.837 0 16 7.163 16 16v0 64c0 8.837-7.163 16-16 16v0zM784 224h-32v32h32zM288 288h-64c-8.837 0-16-7.163-16-16v0-64c0-8.837 7.163-16 16-16v0h64c8.837 0 16 7.163 16 16v0 64c0 8.837-7.163 16-16 16v0zM272 224h-32v32h32zM544 416c-8.837 0-16-7.163-16-16v0-64c0-8.837 7.163-16 16-16v0h64c8.837 0 16 7.163 16 16v0 64c0 8.837-7.163 16-16 16v0zM592 352h-32v32h32zM416 416c-8.837 0-16-7.163-16-16v0-64c0-8.837 7.163-16 16-16v0h64c8.837 0 16 7.163 16 16v0 64c0 8.837-7.163 16-16 16v0zM464 352h-32v32h32zM672 416c-8.837 0-16-7.163-16-16v0-64c0-8.837 7.163-16 16-16v0h64c8.837 0 16 7.163 16 16v0 64c0 8.837-7.163 16-16 16v0zM720 352h-32v32h32zM784 400v-64c0-8.837 7.163-16 16-16v0h64c8.837 0 16 7.163 16 16v0 64c0 8.837-7.163 16-16 16v0h-64c-8.837 0-16-7.163-16-16v0zM816 384h32v-32h-32zM288 416c-8.837 0-16-7.163-16-16v0-64c0-8.837 7.163-16 16-16v0h64c8.837 0 16 7.163 16 16v0 64c0 8.837-7.163 16-16 16v0zM336 352h-32v32h32zM160 416c-8.837 0-16-7.163-16-16v0-64c0-8.837 7.163-16 16-16v0h64c8.837 0 16 7.163 16 16v0 64c0 8.837-7.163 16-16 16v0zM208 352h-32v32h32zM952 608h-880c-30.913-0.036-55.964-25.087-56-55.997v-368.003c0.036-30.913 25.087-55.964 55.997-56h880.003c30.913 0.036 55.964 25.087 56 55.997v368.003c-0.036 30.913-25.087 55.964-55.997 56h-0.003zM976 184c-0.015-13.249-10.751-23.985-23.999-24h-880.001c-13.249 0.015-23.985 10.751-24 23.999v368.001c0.015 13.249 10.751 23.985 23.999 24h880.001c13.249-0.015 23.985-10.751 24-23.999v-0.001z" />
<glyph unicode="&#xe910;" glyph-name="floppy2" d="M888 944h-752c-30.914-0.035-55.965-25.086-56-55.997v-824.003c0-0.002 0-0.004 0-0.006 0-4.417 1.788-8.417 4.68-11.314v0l96-96c2.897-2.892 6.897-4.68 11.314-4.68 0.002 0 0.004 0 0.006 0h696c30.914 0.035 55.965 25.086 56 55.997v880.003c-0.035 30.914-25.086 55.965-55.997 56h-0.003zM192 912h640v-384h-640zM768-16h-512v320h512zM912 8c-0.011-13.25-10.75-23.989-23.999-24h-88.001v336c0 8.837-7.163 16-16 16v0h-544c-8.837 0-16-7.163-16-16v0-336h-25.38l-86.62 86.62v817.38c0.011 13.25 10.75 23.989 23.999 24h24.001v-400c0-8.837 7.163-16 16-16v0h672c8.837 0 16 7.163 16 16v0 400h24c13.25-0.011 23.989-10.75 24-23.999v-0.001zM432 272h-128c-8.837 0-16-7.163-16-16v0-224c0-8.837 7.163-16 16-16v0h128c8.837 0 16 7.163 16 16v0 224c0 8.837-7.163 16-16 16v0zM416 48h-96v192h96z" />
<glyph unicode="&#xe911;" glyph-name="monitor" d="M938.666 831.999h-853.333c-47.042 0-85.333-38.271-85.333-85.333v-512c0-47.062 38.292-85.333 85.333-85.333h362.667v-42.667h-128c-11.792 0-21.333-9.542-21.333-21.333s9.542-21.333 21.333-21.333h384c11.792 0 21.333 9.542 21.333 21.333s-9.542 21.333-21.333 21.333h-128v42.667h362.667c47.042 0 85.333 38.271 85.333 85.333v512c0 47.062-38.292 85.333-85.333 85.333zM938.666 234.666h-853.333v512h853.333v-512z" />
<glyph unicode="&#xe912;" glyph-name="hdmi2" d="M85.333 746.666c-47.042 0-85.333-38.271-85.333-85.333v-426.667c0-47.062 38.292-85.333 85.333-85.333h853.333c47.042 0 85.333 38.271 85.333 85.333v426.667c0 47.062-38.292 85.333-85.333 85.333h-853.333zM328.833 575.999h366.333l100.417-100.417c2.333-2.354 5.208-4.104 8.333-5.167l34.833-11.583c8.708-2.917 14.583-11.062 14.583-20.25v-97.25c0-11.771-9.583-21.333-21.333-21.333h-640c-11.75 0-21.333 9.562-21.333 21.333v97.25c0 9.187 5.875 17.354 14.583 20.25l34.833 11.583c3.125 1.062 6 2.813 8.333 5.167l100.417 100.417zM320 469.332c-11.792 0-21.333-9.542-21.333-21.333h-21.333c-11.792 0-21.333-9.542-21.333-21.333s9.542-21.333 21.333-21.333h469.333c11.792 0 21.333 9.542 21.333 21.333s-9.542 21.333-21.333 21.333h-21.333c0 11.792-9.542 21.333-21.333 21.333s-21.333-9.542-21.333-21.333h-85.333c0 11.792-9.542 21.333-21.333 21.333s-21.333-9.542-21.333-21.333h-85.333c0 11.792-9.542 21.333-21.333 21.333s-21.333-9.542-21.333-21.333h-85.333c0 11.792-9.542 21.333-21.333 21.333z" />
<glyph unicode="&#xe913;" glyph-name="macbook" d="M96.167 917.333c-53.042 0-96.167-43.125-96.167-96.167 0-8.958 1.292-17.917 3.75-26.5l69.167-242.083c4.82-16.935 15.021-31.094 28-41.833-9.589-11.193-15.583-25.555-15.583-41.417v-426.667c0-35.346 28.654-64 64-64h170.667c11.782 0 21.333 9.551 21.333 21.333v128c0 35.2 28.8 64 64 64h213.333c35.2 0 64-28.8 64-64v-128c0-11.782 9.551-21.333 21.333-21.333h170.667c35.346 0 64 28.654 64 64v426.667c0 15.859-5.997 30.224-15.583 41.417 12.979 10.734 23.182 24.836 28 41.75l69.167 242.25c2.458 8.583 3.75 17.458 3.75 26.417 0 53.042-43.125 96.167-96.167 96.167h-831.667zM96.167 874.667h831.667c29.5 0 53.5-24 53.5-53.5 0-5-0.75-9.917-2.083-14.667l-69.167-242.25c-5.208-18.208-22.042-30.917-41-30.917h-714.167c-18.959 0-35.792 12.667-41 30.917l-69.167 242.25c-1.333 4.75-2.083 9.667-2.083 14.667 0 29.5 24 53.5 53.5 53.5zM192 448h42.667c11.792 0 21.333-9.542 21.333-21.333s-9.542-21.333-21.333-21.333h-42.667c-11.792 0-21.333 9.542-21.333 21.333s9.542 21.333 21.333 21.333zM298.667 448c11.781 0 21.333-9.549 21.333-21.333 0-11.781-9.552-21.333-21.333-21.333s-21.333 9.552-21.333 21.333c0 11.784 9.552 21.333 21.333 21.333zM362.667 448c11.781 0 21.333-9.549 21.333-21.333 0-11.781-9.552-21.333-21.333-21.333s-21.333 9.552-21.333 21.333c0 11.784 9.552 21.333 21.333 21.333zM426.667 448c11.781 0 21.333-9.549 21.333-21.333 0-11.781-9.552-21.333-21.333-21.333s-21.333 9.552-21.333 21.333c0 11.784 9.552 21.333 21.333 21.333zM490.667 448c11.781 0 21.333-9.549 21.333-21.333 0-11.781-9.552-21.333-21.333-21.333s-21.333 9.552-21.333 21.333c0 11.784 9.552 21.333 21.333 21.333zM554.667 448c11.781 0 21.333-9.549 21.333-21.333 0-11.781-9.552-21.333-21.333-21.333s-21.333 9.552-21.333 21.333c0 11.784 9.552 21.333 21.333 21.333zM618.667 448c11.781 0 21.333-9.549 21.333-21.333 0-11.781-9.552-21.333-21.333-21.333s-21.333 9.552-21.333 21.333c0 11.784 9.552 21.333 21.333 21.333zM682.667 448c11.781 0 21.333-9.549 21.333-21.333 0-11.781-9.552-21.333-21.333-21.333s-21.333 9.552-21.333 21.333c0 11.784 9.552 21.333 21.333 21.333zM746.667 448c11.781 0 21.333-9.549 21.333-21.333 0-11.781-9.552-21.333-21.333-21.333s-21.333 9.552-21.333 21.333c0 11.784 9.552 21.333 21.333 21.333zM810.667 448h21.333c11.792 0 21.333-9.542 21.333-21.333s-9.542-21.333-21.333-21.333h-21.333c-11.792 0-21.333 9.542-21.333 21.333s9.542 21.333 21.333 21.333zM192 362.667h64c11.792 0 21.333-9.542 21.333-21.333s-9.542-21.333-21.333-21.333h-64c-11.792 0-21.333 9.542-21.333 21.333s9.542 21.333 21.333 21.333zM320 362.667c11.781 0 21.333-9.549 21.333-21.333 0-11.781-9.552-21.333-21.333-21.333s-21.333 9.552-21.333 21.333c0 11.784 9.552 21.333 21.333 21.333zM384 362.667c11.781 0 21.333-9.549 21.333-21.333 0-11.781-9.552-21.333-21.333-21.333s-21.333 9.552-21.333 21.333c0 11.784 9.552 21.333 21.333 21.333zM448 362.667c11.781 0 21.333-9.549 21.333-21.333 0-11.781-9.552-21.333-21.333-21.333s-21.333 9.552-21.333 21.333c0 11.784 9.552 21.333 21.333 21.333zM512 362.667c11.781 0 21.333-9.549 21.333-21.333 0-11.781-9.552-21.333-21.333-21.333s-21.333 9.552-21.333 21.333c0 11.784 9.552 21.333 21.333 21.333zM576 362.667c11.781 0 21.333-9.549 21.333-21.333 0-11.781-9.552-21.333-21.333-21.333s-21.333 9.552-21.333 21.333c0 11.784 9.552 21.333 21.333 21.333zM640 362.667c11.781 0 21.333-9.549 21.333-21.333 0-11.781-9.552-21.333-21.333-21.333s-21.333 9.552-21.333 21.333c0 11.784 9.552 21.333 21.333 21.333zM704 362.667c11.781 0 21.333-9.549 21.333-21.333 0-11.781-9.552-21.333-21.333-21.333s-21.333 9.552-21.333 21.333c0 11.784 9.552 21.333 21.333 21.333zM768 362.667h64c11.792 0 21.333-9.542 21.333-21.333s-9.542-21.333-21.333-21.333h-64c-11.792 0-21.333 9.542-21.333 21.333s9.542 21.333 21.333 21.333zM192 277.333h64c11.792 0 21.333-9.542 21.333-21.333s-9.542-21.333-21.333-21.333h-64c-11.792 0-21.333 9.542-21.333 21.333s9.542 21.333 21.333 21.333zM320 277.333h42.667c11.792 0 21.333-9.542 21.333-21.333s-9.542-21.333-21.333-21.333h-42.667c-11.792 0-21.333 9.542-21.333 21.333s9.542 21.333 21.333 21.333zM426.667 277.333h170.667c11.792 0 21.333-9.542 21.333-21.333s-9.542-21.333-21.333-21.333h-170.667c-11.792 0-21.333 9.542-21.333 21.333s9.542 21.333 21.333 21.333zM661.333 277.333h64c11.792 0 21.333-9.542 21.333-21.333s-9.542-21.333-21.333-21.333h-64c-11.792 0-21.333 9.542-21.333 21.333s9.542 21.333 21.333 21.333zM789.333 277.333h42.667c11.792 0 21.333-9.542 21.333-21.333s-9.542-21.333-21.333-21.333h-42.667c-11.792 0-21.333 9.542-21.333 21.333s9.542 21.333 21.333 21.333zM405.333 149.333c-11.792 0-21.333-9.542-21.333-21.333v-128c0-11.792 9.542-21.333 21.333-21.333s21.333 9.542 21.333 21.333c0 11.75 9.583 21.333 21.333 21.333h128c11.75 0 21.333-9.583 21.333-21.333 0-11.792 9.542-21.333 21.333-21.333s21.333 9.542 21.333 21.333v128c0 11.792-9.542 21.333-21.333 21.333h-213.333z" />
<glyph unicode="&#xe914;" glyph-name="hdmi" d="M341.334 959.999c-47.062 0-85.333-38.271-85.333-85.333v-217.25c-24.779-8.836-42.667-32.307-42.667-60.083v-192.333c0-73.438 19.958-145.5 57.75-208.5l73.333-122.167c3.854-6.417 10.75-10.333 18.25-10.333h64v-106.667c0-11.792 9.542-21.333 21.333-21.333h128c11.792 0 21.333 9.542 21.333 21.333v106.667h64c7.5 0 14.396 3.917 18.25 10.333l73.333 122.167c37.792 63 57.75 135.062 57.75 208.5v192.333c0 27.776-17.888 51.247-42.667 60.083v217.25c0 47.062-38.271 85.333-85.333 85.333h-341.333zM341.334 917.332v-256h-42.667v213.333c0 23.521 19.146 42.667 42.667 42.667zM384.001 917.332h256v-256h-256v256zM682.668 917.332c23.521 0 42.667-19.146 42.667-42.667v-213.333h-42.667v256zM426.668 831.999c-11.792 0-21.333-9.542-21.333-21.333s9.542-21.333 21.333-21.333h42.667c11.792 0 21.333 9.542 21.333 21.333s-9.542 21.333-21.333 21.333h-42.667zM554.668 831.999c-11.792 0-21.333-9.542-21.333-21.333s9.542-21.333 21.333-21.333h42.667c11.792 0 21.333 9.542 21.333 21.333s-9.542 21.333-21.333 21.333h-42.667z" />
<glyph unicode="&#xe915;" glyph-name="droplet" d="M606.588 847.103c-23.647 34.775-44.512 66.768-63.986 95.979-2.782 4.173-6.955 8.346-11.128 11.128-16.692 11.128-38.948 5.564-50.076-11.128-18.083-29.211-38.948-59.813-63.986-95.979-109.889-161.356-274.026-404.78-274.026-543.88 0-101.543 41.73-193.349 108.498-260.116 66.768-65.377 158.574-107.107 260.116-107.107s193.349 41.73 260.116 108.498c66.768 66.768 108.498 158.574 108.498 260.116 0 139.1-164.138 381.133-274.026 542.489zM722.041 94.574c-54.249-54.249-127.972-86.242-210.041-86.242s-155.792 33.384-210.041 86.242c-54.249 54.249-86.242 127.972-86.242 210.041 0 116.844 157.183 349.14 261.507 503.541 12.519 18.083 23.647 36.166 34.775 51.467 11.128-15.301 22.256-33.384 34.775-51.467 104.325-155.792 261.507-386.697 261.507-503.541 0-82.069-33.384-155.792-86.242-210.041zM727.605 329.652c-19.474 1.391-36.166-13.91-37.557-33.384-1.391-30.602-11.128-59.813-26.429-84.851s-37.557-47.294-63.986-61.204c-16.692-9.737-23.647-31.993-13.91-48.685 11.128-19.474 33.384-25.038 50.076-15.301 37.557 20.865 68.159 51.467 89.024 86.242 22.256 34.775 34.775 76.505 36.166 119.626 1.391 19.474-13.91 36.166-33.384 37.557z" />
<glyph unicode="&#xe916;" glyph-name="keyboard1" d="M938.667 789.333h-853.333c-47.042 0-85.333-38.271-85.333-85.333v-512c0-47.062 38.292-85.333 85.333-85.333h853.333c47.042 0 85.333 38.271 85.333 85.333v512c0 47.062-38.292 85.333-85.333 85.333zM448 661.333c0 11.792 9.542 21.333 21.333 21.333h85.333c11.792 0 21.333-9.542 21.333-21.333v-85.333c0-11.792-9.542-21.333-21.333-21.333h-85.333c-11.792 0-21.333 9.542-21.333 21.333v85.333zM448 490.667c0 11.792 9.542 21.333 21.333 21.333h85.333c11.792 0 21.333-9.542 21.333-21.333v-85.333c0-11.792-9.542-21.333-21.333-21.333h-85.333c-11.792 0-21.333 9.542-21.333 21.333v85.333zM277.333 661.333c0 11.792 9.542 21.333 21.333 21.333h85.333c11.792 0 21.333-9.542 21.333-21.333v-85.333c0-11.792-9.542-21.333-21.333-21.333h-85.333c-11.792 0-21.333 9.542-21.333 21.333v85.333zM277.333 490.667c0 11.792 9.542 21.333 21.333 21.333h85.333c11.792 0 21.333-9.542 21.333-21.333v-85.333c0-11.792-9.542-21.333-21.333-21.333h-85.333c-11.792 0-21.333 9.542-21.333 21.333v85.333zM234.667 234.667c0-11.792-9.542-21.333-21.333-21.333h-85.333c-11.792 0-21.333 9.542-21.333 21.333v85.333c0 11.792 9.542 21.333 21.333 21.333h85.333c11.792 0 21.333-9.542 21.333-21.333v-85.333zM234.667 405.333c0-11.792-9.542-21.333-21.333-21.333h-85.333c-11.792 0-21.333 9.542-21.333 21.333v85.333c0 11.792 9.542 21.333 21.333 21.333h85.333c11.792 0 21.333-9.542 21.333-21.333v-85.333zM234.667 576c0-11.792-9.542-21.333-21.333-21.333h-85.333c-11.792 0-21.333 9.542-21.333 21.333v85.333c0 11.792 9.542 21.333 21.333 21.333h85.333c11.792 0 21.333-9.542 21.333-21.333v-85.333zM746.667 234.667c0-11.792-9.542-21.333-21.333-21.333h-426.667c-11.792 0-21.333 9.542-21.333 21.333v85.333c0 11.792 9.542 21.333 21.333 21.333h426.667c11.792 0 21.333-9.542 21.333-21.333v-85.333zM746.667 405.333c0-11.792-9.542-21.333-21.333-21.333h-85.333c-11.792 0-21.333 9.542-21.333 21.333v85.333c0 11.792 9.542 21.333 21.333 21.333h85.333c11.792 0 21.333-9.542 21.333-21.333v-85.333zM746.667 576c0-11.792-9.542-21.333-21.333-21.333h-85.333c-11.792 0-21.333 9.542-21.333 21.333v85.333c0 11.792 9.542 21.333 21.333 21.333h85.333c11.792 0 21.333-9.542 21.333-21.333v-85.333zM917.333 234.667c0-11.792-9.542-21.333-21.333-21.333h-85.333c-11.792 0-21.333 9.542-21.333 21.333v85.333c0 11.792 9.542 21.333 21.333 21.333h85.333c11.792 0 21.333-9.542 21.333-21.333v-85.333zM917.333 405.333c0-11.792-9.542-21.333-21.333-21.333h-85.333c-11.792 0-21.333 9.542-21.333 21.333v85.333c0 11.792 9.542 21.333 21.333 21.333h85.333c11.792 0 21.333-9.542 21.333-21.333v-85.333zM917.333 576c0-11.792-9.542-21.333-21.333-21.333h-85.333c-11.792 0-21.333 9.542-21.333 21.333v85.333c0 11.792 9.542 21.333 21.333 21.333h85.333c11.792 0 21.333-9.542 21.333-21.333v-85.333z" />
<glyph unicode="&#xe917;" glyph-name="floppy1" d="M128 917.333c-47.042 0-85.333-38.271-85.333-85.333v-768c0-47.062 38.292-85.333 85.333-85.333h768c47.042 0 85.333 38.271 85.333 85.333v661.333c0 5.667-2.25 11.083-6.25 15.083l-170.667 170.667c-6.083 6.104-15.292 7.896-23.25 4.583-7.958-3.292-13.167-11.042-13.167-19.667v-277.333c0-47.062-38.292-85.333-85.333-85.333h-384c-47.042 0-85.333 38.271-85.333 85.333v277.333c0 11.792-9.542 21.333-21.333 21.333h-64zM576 874.667c-11.792 0-21.333-9.542-21.333-21.333v-213.333c0-11.792 9.542-21.333 21.333-21.333h85.333c11.792 0 21.333 9.542 21.333 21.333v213.333c0 11.792-9.542 21.333-21.333 21.333h-85.333zM192 448h640c11.792 0 21.333-9.542 21.333-21.333v-384c0-11.792-9.542-21.333-21.333-21.333h-640c-11.792 0-21.333 9.542-21.333 21.333v384c0 11.792 9.542 21.333 21.333 21.333z" />
<glyph unicode="&#xe918;" glyph-name="display" d="M829.167 714.645c-95.604 21.25-193.813 32.021-291.854 32.021h-50.625c-98.042 0-196.25-10.771-291.854-32.021h-0.021c-39.333-8.771-66.813-43.021-66.813-83.312v-366.667c0-40.292 27.479-74.542 66.833-83.312 95.604-21.25 193.812-32.021 291.854-32.021h50.625c98.042 0 196.25 10.771 291.875 32.021 39.333 8.771 66.813 43.021 66.813 83.312v366.667c0 40.292-27.479 74.542-66.833 83.312zM64 746.666h-42.667c-11.792 0-21.333-9.542-21.333-21.333v-554.667c0-11.792 9.542-21.333 21.333-21.333h42.667c11.792 0 21.333 9.542 21.333 21.333v554.667c0 11.792-9.542 21.333-21.333 21.333zM1002.667 746.666h-42.667c-11.792 0-21.333-9.542-21.333-21.333v-554.667c0-11.792 9.542-21.333 21.333-21.333h42.667c11.792 0 21.333 9.542 21.333 21.333v554.667c0 11.792-9.542 21.333-21.333 21.333z" />
</font>
</defs>
</svg>
